{"accessors":[{"bufferView":2,"componentType":5126,"count":2017,"max":[0.7245180010795593,0.19220000505447388,1.0051259994506836],"min":[-0.5704820156097412,-0.2757999897003174,0.006525999866425991],"type":"VEC3"},{"bufferView":2,"byteOffset":24204,"componentType":5126,"count":2017,"max":[1,1,1],"min":[-1,-1,-1],"type":"VEC3"},{"bufferView":3,"componentType":5126,"count":2017,"max":[1,1,1,1],"min":[-1,-1,-1,-1],"type":"VEC4"},{"bufferView":1,"componentType":5126,"count":2017,"max":[1.7848999500274658,1.999899983406067],"min":[-1.9249999523162842,-0.602400004863739],"type":"VEC2"},{"bufferView":0,"componentType":5125,"count":7674,"max":[2016],"min":[0],"type":"SCALAR"}],"asset":{"extras":{"author":"sonicfan443 (https://sketchfab.com/sonicfan443)","license":"CC-BY-4.0 (http://creativecommons.org/licenses/by/4.0/)","source":"https://sketchfab.com/models/4dc65614da13403fa45a9710b4b4d655","title":"Spongebob Squarepants"},"generator":"Sketchfab-3.18.5","version":"2.0"},"bufferViews":[{"buffer":0,"byteLength":30696,"byteOffset":0,"name":"floatBufferViews","target":34963},{"buffer":0,"byteLength":16136,"byteOffset":30696,"byteStride":8,"name":"floatBufferViews","target":34962},{"buffer":0,"byteLength":48408,"byteOffset":46832,"byteStride":12,"name":"floatBufferViews","target":34962},{"buffer":0,"byteLength":32272,"byteOffset":95240,"byteStride":16,"name":"floatBufferViews","target":34962}],"buffers":[{"byteLength":127512,"uri":"data:application/octet-stream;base64,"}],"images":[{"uri":"data:application/octet-stream;base64,"}],"materials":[{"doubleSided":true,"emissiveFactor":[0,0,0],"name":"spongebob","pbrMetallicRoughness":{"baseColorFactor":[1,1,1,1],"baseColorTexture":{"index":0,"texCoord":0},"metallicFactor":0,"roughnessFactor":0.6}}],"meshes":[{"primitives":[{"attributes":{"NORMAL":1,"POSITION":0,"TANGENT":2,"TEXCOORD_0":3},"indices":4,"material":0,"mode":4}]}],"nodes":[{"children":[1],"name":"RootNode (gltf orientation matrix)","rotation":[-0.7071067811865475,0,0,0.7071067811865476]},{"children":[2],"name":"RootNode (model correction matrix)"},{"children":[3],"name":"spongebob_bind.obj.cleaner.gles"},{"mesh":0,"name":""}],"samplers":[{"magFilter":9729,"minFilter":9987,"wrapS":10497,"wrapT":10497}],"scene":0,"scenes":[{"name":"OSG_Scene","nodes":[0]}],"textures":[{"sampler":0,"source":0}]}